<svg width="1200" height="630" viewBox="0 0 1200 630" fill="none" xmlns="http://www.w3.org/2000/svg" role="img" aria-labelledby="title desc">
  <title id="title">Financial services AI control point</title>
  <desc id="desc">A cinematic operations scene where customer records pass through a glowing NeutralAI control gate before reaching an AI workspace.</desc>
  <defs>
    <linearGradient id="bg" x1="0" y1="0" x2="1200" y2="630" gradientUnits="userSpaceOnUse">
      <stop stop-color="#07111f"/>
      <stop offset=".46" stop-color="#0a1728"/>
      <stop offset="1" stop-color="#102615"/>
    </linearGradient>
    <radialGradient id="gateGlow" cx="0" cy="0" r="1" gradientUnits="userSpaceOnUse" gradientTransform="translate(604 302) scale(276 250)">
      <stop stop-color="#22d3ee" stop-opacity=".36"/>
      <stop offset=".52" stop-color="#22d3ee" stop-opacity=".13"/>
      <stop offset="1" stop-color="#22d3ee" stop-opacity="0"/>
    </radialGradient>
    <radialGradient id="deskLight" cx="0" cy="0" r="1" gradientUnits="userSpaceOnUse" gradientTransform="translate(250 444) scale(230 130)">
      <stop stop-color="#fed7aa" stop-opacity=".24"/>
      <stop offset="1" stop-color="#fed7aa" stop-opacity="0"/>
    </radialGradient>
    <filter id="shadow" x="-20%" y="-25%" width="140%" height="150%">
      <feDropShadow dx="0" dy="20" stdDeviation="22" flood-color="#020617" flood-opacity=".48"/>
    </filter>
  </defs>
  <rect width="1200" height="630" fill="url(#bg)"/>
  <rect x="0" y="336" width="1200" height="294" fill="#050b14" opacity=".62"/>
  <ellipse cx="250" cy="452" rx="260" ry="138" fill="url(#deskLight)"/>
  <ellipse cx="604" cy="302" rx="300" ry="258" fill="url(#gateGlow)"/>
  <g font-family="Arial, sans-serif">
    <text x="72" y="86" fill="#22d3ee" font-size="18" font-weight="700" letter-spacing="3">FCA-SAFE AI WORKFLOW</text>
    <text x="72" y="132" fill="#f8fafc" font-size="38" font-weight="800">Useful AI without raw customer data leaving first.</text>
  </g>
  <g filter="url(#shadow)">
    <path d="M92 444H438L404 536H126L92 444Z" fill="#101827" stroke="#334155"/>
    <path d="M134 422H368C386 422 402 436 406 454H112C116 436 118 422 134 422Z" fill="#172238" stroke="#3b526e"/>
    <circle cx="208" cy="340" r="35" fill="#fed7aa"/>
    <path d="M172 424C186 378 228 372 260 408L284 436H148L172 424Z" fill="#1f2937"/>
    <rect x="278" y="278" width="136" height="104" rx="18" fill="#f8fafc"/>
    <path d="M304 316H386" stroke="#0f172a" stroke-width="9" stroke-linecap="round" opacity=".72"/>
    <path d="M304 346H362" stroke="#fb7185" stroke-width="10" stroke-linecap="round"/>
    <path d="M304 374H392" stroke="#0f172a" stroke-width="8" stroke-linecap="round" opacity=".42"/>
    <rect x="120" y="468" width="82" height="28" rx="14" fill="#22d3ee" opacity=".22"/>
    <rect x="222" y="468" width="132" height="28" rx="14" fill="#f97316" opacity=".18"/>
  </g>
  <g filter="url(#shadow)">
    <path d="M474 176H726C746 176 762 192 762 212V472C762 492 746 508 726 508H474C454 508 438 492 438 472V212C438 192 454 176 474 176Z" fill="#061525" stroke="#22d3ee" stroke-width="2"/>
    <path d="M502 212H698C714 212 728 226 728 242V438C728 454 714 468 698 468H502C486 468 472 454 472 438V242C472 226 486 212 502 212Z" fill="#082130" stroke="#155e75"/>
    <path d="M600 214V468" stroke="#22d3ee" stroke-width="2" stroke-dasharray="8 12" opacity=".55"/>
    <path d="M520 284H580" stroke="#fda4af" stroke-width="12" stroke-linecap="round"/>
    <path d="M520 326H570" stroke="#fda4af" stroke-width="12" stroke-linecap="round" opacity=".7"/>
    <path d="M632 284H690" stroke="#34d399" stroke-width="12" stroke-linecap="round"/>
    <path d="M632 326H676" stroke="#34d399" stroke-width="12" stroke-linecap="round" opacity=".72"/>
    <circle cx="600" cy="392" r="34" fill="#22d3ee"/>
    <path d="M584 392L596 406L620 372" stroke="#062b3a" stroke-width="9" stroke-linecap="round" stroke-linejoin="round"/>
  </g>
  <path d="M410 354C454 334 476 322 520 306" stroke="#22d3ee" stroke-width="6" stroke-linecap="round" opacity=".82"/>
  <path d="M408 392C460 390 496 386 552 374" stroke="#f97316" stroke-width="5" stroke-linecap="round" opacity=".55"/>
  <path d="M680 306C754 318 810 328 884 350" stroke="#22d3ee" stroke-width="6" stroke-linecap="round" opacity=".82"/>
  <path d="M680 374C752 396 812 414 890 418" stroke="#34d399" stroke-width="5" stroke-linecap="round" opacity=".7"/>
  <g filter="url(#shadow)">
    <rect x="846" y="236" width="256" height="216" rx="30" fill="#0d1a2c" stroke="#334155"/>
    <path d="M902 294H1028" stroke="#a5f3fc" stroke-width="12" stroke-linecap="round"/>
    <path d="M902 340H1052" stroke="#f8fafc" stroke-width="11" stroke-linecap="round" opacity=".44"/>
    <path d="M902 386H1018" stroke="#34d399" stroke-width="12" stroke-linecap="round"/>
    <rect x="910" y="472" width="134" height="46" rx="18" fill="#13251f" stroke="#34d399"/>
    <path d="M942 496L962 512L1012 468" stroke="#34d399" stroke-width="8" stroke-linecap="round" stroke-linejoin="round"/>
  </g>
  <g opacity=".42">
    <path d="M90 556H1110" stroke="#2b4260"/>
    <path d="M132 594H1060" stroke="#1d3048"/>
  </g>
</svg>
