<svg width="1200" height="630" viewBox="0 0 1200 630" fill="none" xmlns="http://www.w3.org/2000/svg" role="img" aria-labelledby="title desc">
  <title id="title">PII masking flow</title>
  <desc id="desc">A privacy stage where raw identifiers are peeled from a customer document and locked away before useful context reaches AI.</desc>
  <defs>
    <linearGradient id="bg" x1="0" y1="0" x2="1200" y2="630" gradientUnits="userSpaceOnUse">
      <stop stop-color="#07111f"/>
      <stop offset=".54" stop-color="#0b1728"/>
      <stop offset="1" stop-color="#111827"/>
    </linearGradient>
    <linearGradient id="paper" x1="172" y1="158" x2="498" y2="528" gradientUnits="userSpaceOnUse">
      <stop stop-color="#f8fafc"/>
      <stop offset="1" stop-color="#cbd5e1"/>
    </linearGradient>
    <radialGradient id="stage" cx="0" cy="0" r="1" gradientUnits="userSpaceOnUse" gradientTransform="translate(604 354) scale(430 260)">
      <stop stop-color="#22d3ee" stop-opacity=".22"/>
      <stop offset="1" stop-color="#22d3ee" stop-opacity="0"/>
    </radialGradient>
    <filter id="shadow" x="-20%" y="-25%" width="140%" height="150%">
      <feDropShadow dx="0" dy="20" stdDeviation="22" flood-color="#020617" flood-opacity=".46"/>
    </filter>
  </defs>
  <rect width="1200" height="630" fill="url(#bg)"/>
  <rect width="1200" height="630" fill="url(#stage)"/>
  <g font-family="Arial, sans-serif">
    <text x="76" y="86" fill="#22d3ee" font-size="18" font-weight="700" letter-spacing="3">PII MASKING</text>
    <text x="76" y="132" fill="#f8fafc" font-size="38" font-weight="800">The task continues after identity is removed.</text>
  </g>
  <g filter="url(#shadow)">
    <path d="M170 184C170 170 182 158 196 158H424L504 238V492C504 508 490 522 474 522H196C182 522 170 510 170 496V184Z" fill="url(#paper)"/>
    <path d="M424 158V226C424 234 430 240 438 240H504" fill="#94a3b8"/>
    <circle cx="246" cy="246" r="32" fill="#fed7aa"/>
    <path d="M216 326H422" stroke="#0f172a" stroke-width="15" stroke-linecap="round" opacity=".72"/>
    <path d="M216 378H402" stroke="#fb7185" stroke-width="18" stroke-linecap="round"/>
    <path d="M216 430H452" stroke="#0f172a" stroke-width="15" stroke-linecap="round" opacity=".48"/>
  </g>
  <path d="M426 376C500 372 548 344 604 304" stroke="#fb7185" stroke-width="10" stroke-linecap="round"/>
  <path d="M426 428C528 454 606 450 714 406" stroke="#22d3ee" stroke-width="8" stroke-linecap="round" opacity=".72"/>
  <g filter="url(#shadow)">
    <rect x="574" y="232" width="128" height="128" rx="38" fill="#061525" stroke="#22d3ee"/>
    <path d="M616 286V266C616 244 660 244 660 266V286" stroke="#a7f3d0" stroke-width="10" stroke-linecap="round"/>
    <rect x="604" y="284" width="70" height="54" rx="14" fill="#34d399"/>
    <path d="M624 312L638 326L664 290" stroke="#052e1a" stroke-width="8" stroke-linecap="round" stroke-linejoin="round"/>
    <rect x="540" y="388" width="184" height="54" rx="20" fill="#211827" stroke="#fb7185"/>
    <path d="M574 416H690" stroke="#fecdd3" stroke-width="10" stroke-linecap="round"/>
  </g>
  <g filter="url(#shadow)">
    <rect x="784" y="188" width="292" height="300" rx="34" fill="#0d1a2c" stroke="#334155"/>
    <path d="M842 254H958" stroke="#22d3ee" stroke-width="14" stroke-linecap="round"/>
    <path d="M842 314H1004" stroke="#34d399" stroke-width="16" stroke-linecap="round"/>
    <path d="M842 374H966" stroke="#34d399" stroke-width="16" stroke-linecap="round" opacity=".72"/>
    <path d="M842 434H1018" stroke="#f8fafc" stroke-width="13" stroke-linecap="round" opacity=".42"/>
    <path d="M1032 250C1070 278 1088 322 1072 370" stroke="#22d3ee" stroke-width="8" stroke-linecap="round" opacity=".72"/>
  </g>
  <path d="M710 314C750 292 764 280 798 264" stroke="#34d399" stroke-width="8" stroke-linecap="round"/>
  <path d="M724 410C760 418 778 424 812 430" stroke="#22d3ee" stroke-width="6" stroke-linecap="round"/>
</svg>
