<svg width="1200" height="630" viewBox="0 0 1200 630" fill="none" xmlns="http://www.w3.org/2000/svg" role="img" aria-labelledby="title desc">
  <title id="title">Presidio to production layers</title>
  <desc id="desc">An editorial construction scene showing Presidio as a foundation with production governance floors built above it.</desc>
  <defs>
    <linearGradient id="bg" x1="0" y1="0" x2="1200" y2="630" gradientUnits="userSpaceOnUse">
      <stop stop-color="#07111f"/>
      <stop offset=".52" stop-color="#111827"/>
      <stop offset="1" stop-color="#27160a"/>
    </linearGradient>
    <radialGradient id="workLight" cx="0" cy="0" r="1" gradientUnits="userSpaceOnUse" gradientTransform="translate(754 300) scale(390 260)">
      <stop stop-color="#f97316" stop-opacity=".18"/>
      <stop offset="1" stop-color="#f97316" stop-opacity="0"/>
    </radialGradient>
    <filter id="shadow" x="-20%" y="-25%" width="140%" height="150%">
      <feDropShadow dx="0" dy="20" stdDeviation="22" flood-color="#020617" flood-opacity=".46"/>
    </filter>
  </defs>
  <rect width="1200" height="630" fill="url(#bg)"/>
  <rect width="1200" height="630" fill="url(#workLight)"/>
  <g font-family="Arial, sans-serif">
    <text x="76" y="86" fill="#f97316" font-size="18" font-weight="700" letter-spacing="3">PRESIDIO TO PRODUCTION</text>
    <text x="76" y="132" fill="#f8fafc" font-size="38" font-weight="800">A library is the foundation. Teams need the building.</text>
  </g>
  <g filter="url(#shadow)">
    <path d="M204 474H860L792 536H136L204 474Z" fill="#13251f" stroke="#34d399"/>
    <path d="M258 388H914L860 474H204L258 388Z" fill="#0d1a2c" stroke="#60a5fa"/>
    <path d="M312 302H968L914 388H258L312 302Z" fill="#092032" stroke="#22d3ee"/>
    <path d="M366 216H1022L968 302H312L366 216Z" fill="#2b1d13" stroke="#f97316"/>
    <path d="M204 474H860M258 388H914M312 302H968" stroke="#f8fafc" stroke-opacity=".12"/>
  </g>
  <g font-family="Arial, sans-serif" font-size="22" font-weight="800">
    <text x="262" y="512" fill="#bbf7d0">Detection foundation</text>
    <text x="344" y="430" fill="#bfdbfe">Token vault</text>
    <text x="400" y="344" fill="#a5f3fc">Policy routing</text>
    <text x="456" y="258" fill="#fed7aa">Audit operations</text>
  </g>
  <g filter="url(#shadow)">
    <path d="M108 528H206" stroke="#f97316" stroke-width="18" stroke-linecap="round"/>
    <path d="M150 528V360" stroke="#f97316" stroke-width="16" stroke-linecap="round"/>
    <path d="M150 360H442" stroke="#f97316" stroke-width="14" stroke-linecap="round"/>
    <path d="M430 360V420" stroke="#f97316" stroke-width="9" stroke-linecap="round"/>
    <rect x="398" y="420" width="66" height="50" rx="8" fill="#fed7aa"/>
  </g>
  <g filter="url(#shadow)">
    <rect x="870" y="170" width="214" height="130" rx="28" fill="#111827" stroke="#334155"/>
    <path d="M924 224H1030" stroke="#f8fafc" stroke-width="10" stroke-linecap="round" opacity=".68"/>
    <path d="M924 258H996" stroke="#22d3ee" stroke-width="10" stroke-linecap="round"/>
    <circle cx="924" cy="364" r="34" fill="#fed7aa"/>
    <path d="M890 450C910 398 958 392 990 434L1010 462H866L890 450Z" fill="#1f2937"/>
    <path d="M1018 376L1086 318" stroke="#f97316" stroke-width="10" stroke-linecap="round"/>
    <circle cx="1100" cy="306" r="20" fill="#f97316"/>
  </g>
</svg>
