<svg width="1200" height="630" viewBox="0 0 1200 630" fill="none" xmlns="http://www.w3.org/2000/svg" role="img" aria-labelledby="title desc">
  <title id="title">Shadow AI control point</title>
  <desc id="desc">A dramatic split corridor where unmanaged prompt copying becomes a visible approved AI path through NeutralAI.</desc>
  <defs>
    <linearGradient id="bg" x1="0" y1="0" x2="1200" y2="630" gradientUnits="userSpaceOnUse">
      <stop stop-color="#130b18"/>
      <stop offset=".48" stop-color="#07111f"/>
      <stop offset="1" stop-color="#062326"/>
    </linearGradient>
    <radialGradient id="red" cx="0" cy="0" r="1" gradientUnits="userSpaceOnUse" gradientTransform="translate(258 292) scale(270 260)">
      <stop stop-color="#fb7185" stop-opacity=".32"/>
      <stop offset="1" stop-color="#fb7185" stop-opacity="0"/>
    </radialGradient>
    <radialGradient id="blue" cx="0" cy="0" r="1" gradientUnits="userSpaceOnUse" gradientTransform="translate(920 292) scale(300 260)">
      <stop stop-color="#22d3ee" stop-opacity=".30"/>
      <stop offset="1" stop-color="#22d3ee" stop-opacity="0"/>
    </radialGradient>
    <filter id="shadow" x="-20%" y="-25%" width="140%" height="150%">
      <feDropShadow dx="0" dy="18" stdDeviation="22" flood-color="#020617" flood-opacity=".48"/>
    </filter>
  </defs>
  <rect width="1200" height="630" fill="url(#bg)"/>
  <rect width="600" height="630" fill="url(#red)"/>
  <rect x="600" width="600" height="630" fill="url(#blue)"/>
  <path d="M600 96V542" stroke="#37516e" stroke-width="2" stroke-dasharray="10 14" opacity=".65"/>
  <g font-family="Arial, sans-serif">
    <text x="74" y="86" fill="#fb7185" font-size="18" font-weight="700" letter-spacing="3">UNMANAGED PATH</text>
    <text x="74" y="132" fill="#f8fafc" font-size="38" font-weight="800">Invisible AI use creates blind spots.</text>
    <text x="716" y="86" fill="#22d3ee" font-size="18" font-weight="700" letter-spacing="3">CONTROLLED PATH</text>
    <text x="716" y="132" fill="#f8fafc" font-size="38" font-weight="800">Approved AI leaves evidence behind.</text>
  </g>
  <g filter="url(#shadow)">
    <path d="M102 484L246 244H466L406 484H102Z" fill="#160f1d" stroke="#7f1d1d"/>
    <rect x="258" y="236" width="150" height="110" rx="18" fill="#0f172a" stroke="#fb7185"/>
    <path d="M288 276H376" stroke="#fb7185" stroke-width="10" stroke-linecap="round"/>
    <path d="M288 312H350" stroke="#f8fafc" stroke-width="8" stroke-linecap="round" opacity=".5"/>
    <circle cx="194" cy="352" r="34" fill="#fed7aa"/>
    <path d="M158 454C176 404 226 400 260 438L286 466H132L158 454Z" fill="#20202b"/>
    <path d="M336 366C384 382 422 404 472 444" stroke="#fb7185" stroke-width="8" stroke-linecap="round" opacity=".72"/>
  </g>
  <g filter="url(#shadow)">
    <path d="M502 264H682C700 264 714 278 714 296V382C714 400 700 414 682 414H502C484 414 470 400 470 382V296C470 278 484 264 502 264Z" fill="#061525" stroke="#f97316"/>
    <path d="M528 322H650" stroke="#fed7aa" stroke-width="10" stroke-linecap="round"/>
    <path d="M622 296L656 322L622 348" stroke="#fed7aa" stroke-width="10" stroke-linecap="round" stroke-linejoin="round"/>
  </g>
  <g filter="url(#shadow)">
    <path d="M724 484L784 236H1044L1110 484H724Z" fill="#071927" stroke="#155e75"/>
    <rect x="812" y="224" width="172" height="210" rx="30" fill="#062b3a" stroke="#22d3ee"/>
    <path d="M872 284V266C872 244 914 244 914 266V284" stroke="#a7f3d0" stroke-width="10" stroke-linecap="round"/>
    <rect x="852" y="284" width="82" height="62" rx="16" fill="#34d399"/>
    <path d="M874 314L890 330L918 292" stroke="#052e1a" stroke-width="9" stroke-linecap="round" stroke-linejoin="round"/>
    <rect x="996" y="292" width="78" height="120" rx="18" fill="#0d1a2c" stroke="#334155"/>
    <path d="M1018 326H1052M1018 358H1046M1018 390H1058" stroke="#a5f3fc" stroke-width="8" stroke-linecap="round"/>
  </g>
  <path d="M742 358C806 374 866 384 956 374" stroke="#22d3ee" stroke-width="6" stroke-linecap="round" opacity=".72"/>
  <path d="M756 404C842 448 948 456 1058 430" stroke="#34d399" stroke-width="5" stroke-linecap="round" opacity=".64"/>
</svg>
