<svg viewBox="0 0 1200 630" xmlns="http://www.w3.org/2000/svg">
  <defs>
    <linearGradient id="bg" x1="0" y1="0" x2="1200" y2="630" gradientUnits="userSpaceOnUse">
      <stop offset="0%" stop-color="#030712"/>
      <stop offset="55%" stop-color="#0B1220"/>
      <stop offset="100%" stop-color="#0F172A"/>
    </linearGradient>
    <radialGradient id="redFade" cx="10%" cy="45%" r="65%">
      <stop offset="0%" stop-color="#F97316" stop-opacity="0.32"/>
      <stop offset="100%" stop-color="#F97316" stop-opacity="0"/>
    </radialGradient>
    <radialGradient id="tealFade" cx="90%" cy="55%" r="65%">
      <stop offset="0%" stop-color="#22D3EE" stop-opacity="0.28"/>
      <stop offset="100%" stop-color="#06B6D4" stop-opacity="0"/>
    </radialGradient>
    <radialGradient id="gateGlow" cx="50%" cy="50%" r="50%">
      <stop offset="0%" stop-color="#22D3EE" stop-opacity="0.9"/>
      <stop offset="60%" stop-color="#06B6D4" stop-opacity="0.35"/>
      <stop offset="100%" stop-color="#06B6D4" stop-opacity="0"/>
    </radialGradient>
    <linearGradient id="gateMetal" x1="0" y1="0" x2="0" y2="1">
      <stop offset="0%" stop-color="#334155"/>
      <stop offset="100%" stop-color="#1E293B"/>
    </linearGradient>
    <linearGradient id="paperGrad" x1="0" y1="0" x2="0" y2="1">
      <stop offset="0%" stop-color="#F8FAFC"/>
      <stop offset="100%" stop-color="#CBD5E1"/>
    </linearGradient>
    <filter id="softBlur" x="-50%" y="-50%" width="200%" height="200%">
      <feGaussianBlur stdDeviation="10"/>
    </filter>
    <filter id="glowBlur" x="-100%" y="-100%" width="300%" height="300%">
      <feGaussianBlur stdDeviation="6"/>
    </filter>
  </defs>

  <rect width="1200" height="630" fill="url(#bg)"/>

  <!-- ambient side washes -->
  <rect x="0" y="0" width="1200" height="630" fill="url(#redFade)"/>
  <rect x="0" y="0" width="1200" height="630" fill="url(#tealFade)"/>

  <!-- faint city / tribunal skyline silhouette -->
  <g opacity="0.28" fill="#1E293B">
    <rect x="40" y="330" width="46" height="220"/>
    <rect x="96" y="290" width="34" height="260"/>
    <rect x="140" y="360" width="58" height="190"/>
    <rect x="1010" y="300" width="40" height="250"/>
    <rect x="1058" y="345" width="52" height="205"/>
    <rect x="1118" y="270" width="34" height="280"/>
  </g>
  <!-- tribunal pillars motif, left side, subtle -->
  <g opacity="0.35">
    <rect x="70" y="420" width="10" height="130" fill="#334155"/>
    <rect x="100" y="400" width="10" height="150" fill="#334155"/>
    <rect x="130" y="420" width="10" height="130" fill="#334155"/>
    <rect x="55" y="550" width="100" height="8" fill="#334155"/>
    <rect x="55" y="392" width="100" height="8" fill="#334155"/>
  </g>

  <!-- scattered red data particles (unmasked / breach side) -->
  <g fill="#FB923C">
    <circle cx="150" cy="200" r="3" opacity="0.8"/>
    <circle cx="210" cy="260" r="2.5" opacity="0.7"/>
    <circle cx="90" cy="240" r="2" opacity="0.6"/>
    <circle cx="260" cy="180" r="2.5" opacity="0.7"/>
    <circle cx="320" cy="230" r="3" opacity="0.8"/>
    <circle cx="180" cy="150" r="2" opacity="0.5"/>
    <circle cx="370" cy="190" r="2.5" opacity="0.65"/>
    <circle cx="240" cy="310" r="2" opacity="0.55"/>
  </g>
  <!-- fragmented "leaked" document glyphs, red side -->
  <g fill="#FDBA74" opacity="0.75">
    <rect x="130" y="190" width="26" height="18" rx="2" transform="rotate(-8 143 199)"/>
    <rect x="270" y="150" width="26" height="18" rx="2" transform="rotate(10 283 159)"/>
    <rect x="320" y="270" width="26" height="18" rx="2" transform="rotate(-14 333 279)"/>
    <rect x="70" y="290" width="26" height="18" rx="2" transform="rotate(6 83 299)"/>
  </g>

  <!-- flowing data stream lines from left into the gate -->
  <g stroke="#F97316" stroke-width="2" fill="none" opacity="0.55">
    <path d="M60,230 C240,190 380,260 540,300" />
    <path d="M60,320 C220,340 380,300 540,320" />
    <path d="M100,180 C260,150 400,220 540,280" />
  </g>

  <!-- the checkpoint gate structure -->
  <g>
    <circle cx="600" cy="300" r="140" fill="url(#gateGlow)"/>
    <rect x="560" y="150" width="80" height="300" rx="20" fill="url(#gateMetal)" stroke="#475569" stroke-width="2"/>
    <rect x="576" y="168" width="48" height="264" rx="12" fill="#0B1220" stroke="#22D3EE" stroke-width="1.5" opacity="0.9"/>
    <!-- shield glyph centered in the gate -->
    <g transform="translate(600 300)">
      <path d="M0,-46 L34,-30 L34,6 C34,34 18,52 0,60 C-18,52 -34,34 -34,6 L-34,-30 Z"
            fill="none" stroke="#22D3EE" stroke-width="3" filter="url(#glowBlur)" opacity="0.9"/>
      <path d="M0,-46 L34,-30 L34,6 C34,34 18,52 0,60 C-18,52 -34,34 -34,6 L-34,-30 Z"
            fill="#0B1220" stroke="#67E8F9" stroke-width="2"/>
      <path d="M-14,2 L-4,14 L18,-14" fill="none" stroke="#67E8F9" stroke-width="4" stroke-linecap="round" stroke-linejoin="round"/>
    </g>
  </g>

  <!-- the client letter, mid-transit through the gate -->
  <g transform="translate(600 300) rotate(-4)">
    <rect x="-46" y="-58" width="92" height="118" rx="4" fill="url(#paperGrad)" opacity="0.92"/>
    <rect x="-32" y="-38" width="64" height="6" rx="2" fill="#94A3B8"/>
    <rect x="-32" y="-24" width="50" height="5" rx="2" fill="#CBD5E1"/>
    <rect x="-32" y="-12" width="58" height="5" rx="2" fill="#CBD5E1"/>
    <rect x="-32" y="0" width="40" height="5" rx="2" fill="#CBD5E1"/>
    <rect x="-32" y="18" width="54" height="5" rx="2" fill="#22D3EE" opacity="0.85"/>
    <rect x="-32" y="30" width="44" height="5" rx="2" fill="#22D3EE" opacity="0.55"/>
  </g>

  <!-- clean teal data stream lines emerging right, contained/orderly -->
  <g stroke="#22D3EE" stroke-width="2" fill="none" opacity="0.65">
    <path d="M660,260 L1140,220" />
    <path d="M660,300 L1140,300" />
    <path d="M660,340 L1140,380" />
  </g>
  <g fill="#22D3EE">
    <circle cx="760" cy="248" r="3"/>
    <circle cx="860" cy="238" r="3"/>
    <circle cx="960" cy="228" r="3"/>
    <circle cx="1060" cy="222" r="3"/>
    <circle cx="760" cy="300" r="3"/>
    <circle cx="880" cy="300" r="3"/>
    <circle cx="1000" cy="300" r="3"/>
    <circle cx="1100" cy="300" r="3"/>
    <circle cx="760" cy="352" r="3"/>
    <circle cx="870" cy="362" r="3"/>
    <circle cx="980" cy="372" r="3"/>
    <circle cx="1090" cy="380" r="3"/>
  </g>

  <!-- tokenized glyphs on the safe/right side -->
  <g opacity="0.85">
    <rect x="900" y="440" width="70" height="26" rx="13" fill="none" stroke="#22D3EE" stroke-width="1.5"/>
    <g fill="#67E8F9">
      <circle cx="918" cy="453" r="2.5"/>
      <rect x="928" y="450.5" width="14" height="5" rx="2.5"/>
      <circle cx="948" cy="453" r="2.5"/>
      <rect x="956" y="450.5" width="10" height="5" rx="2.5"/>
    </g>
    <rect x="1000" y="480" width="66" height="26" rx="13" fill="none" stroke="#22D3EE" stroke-width="1.5"/>
    <g fill="#67E8F9">
      <rect x="1014" y="490.5" width="10" height="5" rx="2.5"/>
      <circle cx="1030" cy="493" r="2.5"/>
      <rect x="1038" y="490.5" width="14" height="5" rx="2.5"/>
      <circle cx="1058" cy="493" r="2.5"/>
    </g>
  </g>

  <!-- an evidence ledger / audit strip beneath, right side -->
  <g opacity="0.9">
    <rect x="900" y="530" width="230" height="46" rx="10" fill="#0F172A" stroke="#1E293B" stroke-width="1.5"/>
    <circle cx="922" cy="553" r="5" fill="#10B981"/>
    <rect x="940" y="546" width="150" height="6" rx="3" fill="#334155"/>
    <rect x="940" y="558" width="110" height="6" rx="3" fill="#1E293B"/>
  </g>

  <!-- small figure silhouette at a desk, left foreground, echoes the case's "ordinary desk" origin -->
  <g opacity="0.65" fill="#1E293B">
    <rect x="60" y="470" width="150" height="10" rx="4"/>
    <rect x="70" y="480" width="10" height="70" rx="3"/>
    <rect x="190" y="480" width="10" height="70" rx="3"/>
    <path d="M120,470 C120,440 108,420 96,410 C104,398 118,392 132,394 C148,396 158,410 156,426 C154,444 138,458 120,470 Z"/>
    <rect x="100" y="440" width="46" height="40" rx="10"/>
  </g>
  <rect x="70" y="472" width="60" height="4" rx="2" fill="#94A3B8" opacity="0.5"/>

  <!-- top label plate: abstract upload-to-checkpoint glyph, no readable text -->
  <g opacity="0.9">
    <rect x="48" y="46" width="270" height="34" rx="17" fill="#0B1220" stroke="#22D3EE" stroke-width="1" opacity="0.7"/>
    <circle cx="72" cy="63" r="4" fill="#F97316"/>
    <path d="M86,63 L120,63" stroke="#475569" stroke-width="2" stroke-linecap="round"/>
    <path d="M114,57 L120,63 L114,69" fill="none" stroke="#475569" stroke-width="2" stroke-linecap="round" stroke-linejoin="round"/>
    <path d="M134,52 L146,63 L134,74 C130,70 130,56 134,52 Z" fill="none" stroke="#22D3EE" stroke-width="2"/>
    <path d="M160,63 L194,63" stroke="#22D3EE" stroke-width="2" stroke-linecap="round"/>
    <circle cx="200" cy="63" r="4" fill="#22D3EE"/>
    <circle cx="216" cy="63" r="4" fill="#22D3EE" opacity="0.6"/>
    <circle cx="232" cy="63" r="4" fill="#22D3EE" opacity="0.35"/>
  </g>
</svg>
